<svg xmlns="http://www.w3.org/2000/svg" viewBox="0 0 1200 3000"><style>
        .node { fill: #ffffff; stroke: #334155; stroke-width: 2; }
        .connection { stroke: #64748b; stroke-width: 2; fill: none; }
        .label { font-family: Inter, sans-serif; font-size: 13px; fill: #1e293b; }
        .conn-label { font-family: Inter, sans-serif; font-size: 11px; fill: #64748b; }
        .diagram-title { font-family: Inter, sans-serif; font-size: 20px; font-weight: 700; fill: #0f172a; }
    </style><text x="20" y="50" class="diagram-title">CI/CD Pipeline</text><text x="20" y="480" class="diagram-title">This tests the Layered (Sugiyama) layout where nodes should naturally flow left-to-right or top-to-bottom</text><rect x="659.40094" y="610" width="120" height="60" rx="5" class="node" fill="#ffffff" stroke="#334155" stroke-width="2" /><text x="719.40094" y="640" text-anchor="middle" dominant-baseline="middle" class="label">Package</text><rect x="340.59875" y="610" width="120" height="60" rx="5" class="node" fill="#ffffff" stroke="#334155" stroke-width="2" /><text x="400.59875" y="640" text-anchor="middle" dominant-baseline="middle" class="label">Build</text><rect x="226.2324" y="610" width="120" height="60" rx="5" class="node" fill="#ffffff" stroke="#334155" stroke-width="2" /><text x="286.23242" y="640" text-anchor="middle" dominant-baseline="middle" class="label">Commit</text><rect x="500" y="610" width="120" height="60" rx="5" class="node" fill="#ffffff" stroke="#334155" stroke-width="2" /><text x="560" y="640" text-anchor="middle" dominant-baseline="middle" class="label">Test</text><path d="M 785.7676,640 C 785.7676,628 803.7676,628 833.7676,628 C 863.7676,628 881.7676,628 881.7676,640 C 881.7676,652 863.7676,652 833.7676,652 C 803.7676,652 785.7676,652 785.7676,640 Z" class="node" fill="#ffffff" stroke="#334155" stroke-width="2" /><text x="833.7676" y="640" text-anchor="middle" dominant-baseline="middle" class="label">Deploy</text></svg>