<svg xmlns="http://www.w3.org/2000/svg" viewBox="0 0 1200 3000"><style>
        .node { fill: #ffffff; stroke: #334155; stroke-width: 2; }
        .connection { stroke: #64748b; stroke-width: 2; fill: none; }
        .label { font-family: Inter, sans-serif; font-size: 13px; fill: #1e293b; }
        .conn-label { font-family: Inter, sans-serif; font-size: 11px; fill: #64748b; }
        .diagram-title { font-family: Inter, sans-serif; font-size: 20px; font-weight: 700; fill: #0f172a; }
    </style><text x="20" y="50" class="diagram-title">State Machine Scenario Test</text><text x="20" y="480" class="diagram-title">The main diagram filters out error states</text><text x="20" y="910" class="diagram-title">Happy Path Flow</text><text x="20" y="1340" class="diagram-title">State Machine: PaymentProcess</text><circle cx="50" cy="1370" r="30" class="node" fill="#fafafa" /><text x="50" y="1370" text-anchor="middle" class="label" dy=".3em">Success</text><circle cx="200" cy="1370" r="30" class="node" fill="#fafafa" /><text x="200" y="1370" text-anchor="middle" class="label" dy=".3em">Pending</text><circle cx="350" cy="1370" r="30" class="node" fill="#fafafa" /><text x="350" y="1370" text-anchor="middle" class="label" dy=".3em">Failed</text><circle cx="500" cy="1370" r="30" class="node" fill="#fafafa" /><text x="500" y="1370" text-anchor="middle" class="label" dy=".3em">Processing</text><circle cx="650" cy="1370" r="30" class="node" fill="#fafafa" /><text x="650" y="1370" text-anchor="middle" class="label" dy=".3em">[*]</text><line x1="680" y1="1370" x2="170" y2="1370" class="connection" stroke-dasharray="5,5" /><line x1="230" y1="1370" x2="470" y2="1370" class="connection" stroke-dasharray="5,5" /><text x="350" y="1360" text-anchor="middle" font-size="10px" fill="#d32f2f">charge_card</text><line x1="530" y1="1370" x2="20" y2="1370" class="connection" stroke-dasharray="5,5" /><text x="275" y="1360" text-anchor="middle" font-size="10px" fill="#d32f2f">payment_ok</text><line x1="530" y1="1370" x2="320" y2="1370" class="connection" stroke-dasharray="5,5" /><text x="425" y="1360" text-anchor="middle" font-size="10px" fill="#d32f2f">payment_declined</text><line x1="380" y1="1370" x2="170" y2="1370" class="connection" stroke-dasharray="5,5" /><text x="275" y="1360" text-anchor="middle" font-size="10px" fill="#d32f2f">retry</text><line x1="80" y1="1370" x2="620" y2="1370" class="connection" stroke-dasharray="5,5" /></svg>