<svg xmlns="http://www.w3.org/2000/svg" viewBox="0 0 1200 3000" width="100%" height="100%" style="cursor: grab;"><style>
        .node { fill: #ffffff; stroke: #334155; stroke-width: 2; }
        .connection { stroke: #64748b; stroke-width: 2; fill: none; }
        .label { font-family: Inter, sans-serif; font-size: 13px; fill: #1e293b; }
        .conn-label { font-family: Inter, sans-serif; font-size: 11px; fill: #64748b; }
        .diagram-title { font-family: Inter, sans-serif; font-size: 20px; font-weight: 700; fill: #0f172a; }
    </style><text x="20" y="50" class="diagram-title">MassiveNetworkGraph</text><rect x="2831.281" y="180" width="80" height="45" rx="5" class="node" fill="#ffffff" stroke="#334155" stroke-width="2" /><text x="2871.281" y="202.5" text-anchor="middle" dominant-baseline="middle" class="label">sys_7</text><rect x="7573.3154" y="180" width="100" height="45" rx="5" class="node" fill="#ffffff" stroke="#334155" stroke-width="2" /><text x="7623.3154" y="202.5" text-anchor="middle" dominant-baseline="middle" class="label">sys_19</text><rect x="2049.9063" y="180" width="60" height="50" rx="5" class="node" fill="#ffffff" stroke="#334155" stroke-width="2" /><text x="2079.9063" y="205" text-anchor="middle" dominant-baseline="middle" class="label">sys_5</text><rect x="35791.6" y="180" width="60" height="40" rx="5" class="node" fill="#ffffff" stroke="#334155" stroke-width="2" /><text x="35821.6" y="200" text-anchor="middle" dominant-baseline="middle" class="label">sys_90</text><rect x="29050.879" y="180" width="90" height="45" rx="5" class="node" fill="#ffffff" stroke="#334155" stroke-width="2" /><text x="29095.879" y="202.5" text-anchor="middle" dominant-baseline="middle" class="label">sys_73</text><rect x="31434.473" y="180" width="100" height="45" rx="5" class="node" fill="#ffffff" stroke="#334155" stroke-width="2" /><text x="31484.473" y="202.5" text-anchor="middle" dominant-baseline="middle" class="label">sys_79</text><rect x="36185.742" y="180" width="70" height="45" rx="5" class="node" fill="#ffffff" stroke="#334155" stroke-width="2" /><text x="36220.742" y="202.5" text-anchor="middle" dominant-baseline="middle" class="label">sys_91</text><rect x="28255.86" y="180" width="70" height="50" rx="5" class="node" fill="#ffffff" stroke="#334155" stroke-width="2" /><text x="28290.86" y="205" text-anchor="middle" dominant-baseline="middle" class="label">sys_71</text><rect x="17114.648" y="180" width="90" height="45" rx="5" class="node" fill="#ffffff" stroke="#334155" stroke-width="2" /><text x="17159.648" y="202.5" text-anchor="middle" dominant-baseline="middle" class="label">sys_43</text><rect x="26665.137" y="180" width="80" height="45" rx="5" class="node" fill="#ffffff" stroke="#334155" stroke-width="2" /><text x="26705.137" y="202.5" text-anchor="middle" dominant-baseline="middle" class="label">sys_67</text><rect x="15920.801" y="180" width="60" height="45" rx="5" class="node" fill="#ffffff" stroke="#334155" stroke-width="2" /><text x="15950.801" y="202.5" text-anchor="middle" dominant-baseline="middle" class="label">sys_40</text><rect x="8764.014" y="180" width="80" height="45" rx="5" class="node" fill="#ffffff" stroke="#334155" stroke-width="2" /><text x="8804.014" y="202.5" text-anchor="middle" dominant-baseline="middle" class="label">sys_22</text><rect x="5987.7197" y="180" width="60" height="40" rx="5" class="node" fill="#ffffff" stroke="#334155" stroke-width="2" /><text x="6017.7197" y="200" text-anchor="middle" dominant-baseline="middle" class="label">sys_15</text><rect x="17512.598" y="180" width="100" height="50" rx="5" class="node" fill="#ffffff" stroke="#334155" stroke-width="2" /><text x="17562.598" y="205" text-anchor="middle" dominant-baseline="middle" class="label">sys_44</text><rect x="25869.629" y="180" width="60" height="50" rx="5" class="node" fill="#ffffff" stroke="#334155" stroke-width="2" /><text x="25899.629" y="205" text-anchor="middle" dominant-baseline="middle" class="label">sys_65</text><rect x="33814.258" y="180" width="60" height="45" rx="5" class="node" fill="#ffffff" stroke="#334155" stroke-width="2" /><text x="33844.258" y="202.5" text-anchor="middle" dominant-baseline="middle" class="label">sys_85</text><rect x="10352.93" y="180" width="70" height="50" rx="5" class="node" fill="#ffffff" stroke="#334155" stroke-width="2" /><text x="10387.93" y="205" text-anchor="middle" dominant-baseline="middle" class="label">sys_26</text><rect x="19900.488" y="180" width="60" height="50" rx="5" class="node" fill="#ffffff" stroke="#334155" stroke-width="2" /><text x="19930.488" y="205" text-anchor="middle" dominant-baseline="middle" class="label">sys_50</text><rect x="21890.43" y="180" width="60" height="45" rx="5" class="node" fill="#ffffff" stroke="#334155" stroke-width="2" /><text x="21920.43" y="202.5" text-anchor="middle" dominant-baseline="middle" class="label">sys_55</text><rect x="1278.2485" y="180" width="90" height="40" rx="5" class="node" fill="#ffffff" stroke="#334155" stroke-width="2" /><text x="1323.2485" y="200" text-anchor="middle" dominant-baseline="middle" class="label">sys_3</text><rect x="31037.402" y="180" width="90" height="40" rx="5" class="node" fill="#ffffff" stroke="#334155" stroke-width="2" /><text x="31082.402" y="200" text-anchor="middle" dominant-baseline="middle" class="label">sys_78</text><rect x="31831.445" y="180" width="60" height="50" rx="5" class="node" fill="#ffffff" stroke="#334155" stroke-width="2" /><text x="31861.445" y="205" text-anchor="middle" dominant-baseline="middle" class="label">sys_80</text><rect x="21492.48" y="180" width="100" height="40" rx="5" class="node" fill="#ffffff" stroke="#334155" stroke-width="2" /><text x="21542.48" y="200" text-anchor="middle" dominant-baseline="middle" class="label">sys_54</text><rect x="28653.418" y="180" width="80" height="40" rx="5" class="node" fill="#ffffff" stroke="#334155" stroke-width="2" /><text x="28693.418" y="200" text-anchor="middle" dominant-baseline="middle" class="label">sys_72</text><rect x="23482.324" y="180" width="100" height="50" rx="5" class="node" fill="#ffffff" stroke="#334155" stroke-width="2" /><text x="23532.324" y="205" text-anchor="middle" dominant-baseline="middle" class="label">sys_59</text><rect x="38530.305" y="180" width="80" height="45" rx="5" class="node" fill="#ffffff" stroke="#334155" stroke-width="2" /><text x="38570.305" y="202.5" text-anchor="middle" dominant-baseline="middle" class="label">sys_97</text><rect x="24278.125" y="180" width="70" height="45" rx="5" class="node" fill="#ffffff" stroke="#334155" stroke-width="2" /><text x="24313.125" y="202.5" text-anchor="middle" dominant-baseline="middle" class="label">sys_61</text><rect x="20696.484" y="180" width="80" height="45" rx="5" class="node" fill="#ffffff" stroke="#334155" stroke-width="2" /><text x="20736.484" y="202.5" text-anchor="middle" dominant-baseline="middle" class="label">sys_52</text><rect x="22686.426" y="180" width="80" height="40" rx="5" class="node" fill="#ffffff" stroke="#334155" stroke-width="2" /><text x="22726.426" y="200" text-anchor="middle" dominant-baseline="middle" class="label">sys_57</text><rect x="29845.703" y="180" width="60" height="40" rx="5" class="node" fill="#ffffff" stroke="#334155" stroke-width="2" /><text x="29875.703" y="200" text-anchor="middle" dominant-baseline="middle" class="label">sys_75</text><rect x="13931.494" y="180" width="60" height="50" rx="5" class="node" fill="#ffffff" stroke="#334155" stroke-width="2" /><text x="13961.494" y="205" text-anchor="middle" dominant-baseline="middle" class="label">sys_35</text><rect x="14727.148" y="180" width="80" height="45" rx="5" class="node" fill="#ffffff" stroke="#334155" stroke-width="2" /><text x="14767.148" y="202.5" text-anchor="middle" dominant-baseline="middle" class="label">sys_37</text><rect x="19104.492" y="180" width="90" height="40" rx="5" class="node" fill="#ffffff" stroke="#334155" stroke-width="2" /><text x="19149.492" y="200" text-anchor="middle" dominant-baseline="middle" class="label">sys_48</text><rect x="24676.074" y="180" width="80" height="50" rx="5" class="node" fill="#ffffff" stroke="#334155" stroke-width="2" /><text x="24716.074" y="205" text-anchor="middle" dominant-baseline="middle" class="label">sys_62</text><rect x="39586.03" y="180" width="60" height="45" rx="5" class="node" fill="#ffffff" stroke="#334155" stroke-width="2" /><text x="39616.03" y="202.5" text-anchor="middle" dominant-baseline="middle" class="label">sys_100</text><rect x="38911.5" y="180" width="90" height="50" rx="5" class="node" fill="#ffffff" stroke="#334155" stroke-width="2" /><text x="38956.5" y="205" text-anchor="middle" dominant-baseline="middle" class="label">sys_98</text><rect x="13533.74" y="180" width="100" height="45" rx="5" class="node" fill="#ffffff" stroke="#334155" stroke-width="2" /><text x="13583.74" y="202.5" text-anchor="middle" dominant-baseline="middle" class="label">sys_34</text><rect x="16716.7" y="180" width="80" height="40" rx="5" class="node" fill="#ffffff" stroke="#334155" stroke-width="2" /><text x="16756.7" y="200" text-anchor="middle" dominant-baseline="middle" class="label">sys_42</text><rect x="17910.547" y="180" width="60" height="40" rx="5" class="node" fill="#ffffff" stroke="#334155" stroke-width="2" /><text x="17940.547" y="200" text-anchor="middle" dominant-baseline="middle" class="label">sys_45</text><rect x="901.29205" y="180" width="80" height="50" rx="5" class="node" fill="#ffffff" stroke="#334155" stroke-width="2" /><text x="941.29205" y="205" text-anchor="middle" dominant-baseline="middle" class="label">sys_2</text><rect x="5196.167" y="180" width="90" height="45" rx="5" class="node" fill="#ffffff" stroke="#334155" stroke-width="2" /><text x="5241.167" y="202.5" text-anchor="middle" dominant-baseline="middle" class="label">sys_13</text><rect x="39457.137" y="180" width="120" height="60" rx="5" class="node" fill="#ffffff" stroke="#334155" stroke-width="2" /><text x="39517.137" y="210" text-anchor="middle" dominant-baseline="middle" class="label">node</text><rect x="23084.375" y="180" width="90" height="45" rx="5" class="node" fill="#ffffff" stroke="#334155" stroke-width="2" /><text x="23129.375" y="202.5" text-anchor="middle" dominant-baseline="middle" class="label">sys_58</text><rect x="11147.852" y="180" width="90" height="45" rx="5" class="node" fill="#ffffff" stroke="#334155" stroke-width="2" /><text x="11192.852" y="202.5" text-anchor="middle" dominant-baseline="middle" class="label">sys_28</text><rect x="27062.89" y="180" width="90" height="50" rx="5" class="node" fill="#ffffff" stroke="#334155" stroke-width="2" /><text x="27107.89" y="205" text-anchor="middle" dominant-baseline="middle" class="label">sys_68</text><rect x="3617.2222" y="180" width="100" height="40" rx="5" class="node" fill="#ffffff" stroke="#334155" stroke-width="2" /><text x="3667.2222" y="200" text-anchor="middle" dominant-baseline="middle" class="label">sys_9</text><rect x="7970.093" y="180" width="60" height="50" rx="5" class="node" fill="#ffffff" stroke="#334155" stroke-width="2" /><text x="8000.093" y="205" text-anchor="middle" dominant-baseline="middle" class="label">sys_20</text><rect x="35396.68" y="180" width="100" height="50" rx="5" class="node" fill="#ffffff" stroke="#334155" stroke-width="2" /><text x="35446.68" y="205" text-anchor="middle" dominant-baseline="middle" class="label">sys_89</text><rect x="1662.2413" y="180" width="100" height="45" rx="5" class="node" fill="#ffffff" stroke="#334155" stroke-width="2" /><text x="1712.2413" y="202.5" text-anchor="middle" dominant-baseline="middle" class="label">sys_4</text><rect x="542.8562" y="180" width="70" height="45" rx="5" class="node" fill="#ffffff" stroke="#334155" stroke-width="2" /><text x="577.8562" y="202.5" text-anchor="middle" dominant-baseline="middle" class="label">sys_1</text><rect x="4405.834" y="180" width="70" height="50" rx="5" class="node" fill="#ffffff" stroke="#334155" stroke-width="2" /><text x="4440.834" y="205" text-anchor="middle" dominant-baseline="middle" class="label">sys_11</text><rect x="6780.176" y="180" width="80" height="50" rx="5" class="node" fill="#ffffff" stroke="#334155" stroke-width="2" /><text x="6820.176" y="205" text-anchor="middle" dominant-baseline="middle" class="label">sys_17</text><rect x="9955.615" y="180" width="60" height="45" rx="5" class="node" fill="#ffffff" stroke="#334155" stroke-width="2" /><text x="9985.615" y="202.5" text-anchor="middle" dominant-baseline="middle" class="label">sys_25</text><rect x="12340.576" y="180" width="70" height="45" rx="5" class="node" fill="#ffffff" stroke="#334155" stroke-width="2" /><text x="12375.576" y="202.5" text-anchor="middle" dominant-baseline="middle" class="label">sys_31</text><rect x="19502.54" y="180" width="100" height="45" rx="5" class="node" fill="#ffffff" stroke="#334155" stroke-width="2" /><text x="19552.54" y="202.5" text-anchor="middle" dominant-baseline="middle" class="label">sys_49</text><rect x="29448.34" y="180" width="100" height="50" rx="5" class="node" fill="#ffffff" stroke="#334155" stroke-width="2" /><text x="29498.34" y="205" text-anchor="middle" dominant-baseline="middle" class="label">sys_74</text><rect x="20298.535" y="180" width="70" height="40" rx="5" class="node" fill="#ffffff" stroke="#334155" stroke-width="2" /><text x="20333.535" y="200" text-anchor="middle" dominant-baseline="middle" class="label">sys_51</text><rect x="4800.8057" y="180" width="80" height="40" rx="5" class="node" fill="#ffffff" stroke="#334155" stroke-width="2" /><text x="4840.8057" y="200" text-anchor="middle" dominant-baseline="middle" class="label">sys_12</text><rect x="15125" y="180" width="90" height="50" rx="5" class="node" fill="#ffffff" stroke="#334155" stroke-width="2" /><text x="15170" y="205" text-anchor="middle" dominant-baseline="middle" class="label">sys_38</text><rect x="21094.531" y="180" width="90" height="50" rx="5" class="node" fill="#ffffff" stroke="#334155" stroke-width="2" /><text x="21139.531" y="205" text-anchor="middle" dominant-baseline="middle" class="label">sys_53</text><rect x="23880.273" y="180" width="60" height="40" rx="5" class="node" fill="#ffffff" stroke="#334155" stroke-width="2" /><text x="23910.273" y="200" text-anchor="middle" dominant-baseline="middle" class="label">sys_60</text><rect x="3223.8367" y="180" width="90" height="50" rx="5" class="node" fill="#ffffff" stroke="#334155" stroke-width="2" /><text x="3268.8367" y="205" text-anchor="middle" dominant-baseline="middle" class="label">sys_8</text><rect x="4011.2644" y="180" width="60" height="45" rx="5" class="node" fill="#ffffff" stroke="#334155" stroke-width="2" /><text x="4041.2644" y="202.5" text-anchor="middle" dominant-baseline="middle" class="label">sys_10</text><rect x="9161.133" y="180" width="90" height="50" rx="5" class="node" fill="#ffffff" stroke="#334155" stroke-width="2" /><text x="9206.133" y="205" text-anchor="middle" dominant-baseline="middle" class="label">sys_23</text><rect x="18706.543" y="180" width="80" height="50" rx="5" class="node" fill="#ffffff" stroke="#334155" stroke-width="2" /><text x="18746.543" y="205" text-anchor="middle" dominant-baseline="middle" class="label">sys_47</text><rect x="13135.986" y="180" width="90" height="40" rx="5" class="node" fill="#ffffff" stroke="#334155" stroke-width="2" /><text x="13180.986" y="200" text-anchor="middle" dominant-baseline="middle" class="label">sys_33</text><rect x="10750.391" y="180" width="80" height="40" rx="5" class="node" fill="#ffffff" stroke="#334155" stroke-width="2" /><text x="10790.391" y="200" text-anchor="middle" dominant-baseline="middle" class="label">sys_27</text><rect x="16318.701" y="180" width="70" height="50" rx="5" class="node" fill="#ffffff" stroke="#334155" stroke-width="2" /><text x="16353.701" y="205" text-anchor="middle" dominant-baseline="middle" class="label">sys_41</text><rect x="25073.926" y="180" width="90" height="40" rx="5" class="node" fill="#ffffff" stroke="#334155" stroke-width="2" /><text x="25118.926" y="200" text-anchor="middle" dominant-baseline="middle" class="label">sys_63</text><rect x="25471.777" y="180" width="100" height="45" rx="5" class="node" fill="#ffffff" stroke="#334155" stroke-width="2" /><text x="25521.777" y="202.5" text-anchor="middle" dominant-baseline="middle" class="label">sys_64</text><rect x="27460.547" y="180" width="100" height="40" rx="5" class="node" fill="#ffffff" stroke="#334155" stroke-width="2" /><text x="27510.547" y="200" text-anchor="middle" dominant-baseline="middle" class="label">sys_69</text><rect x="32228.32" y="180" width="70" height="40" rx="5" class="node" fill="#ffffff" stroke="#334155" stroke-width="2" /><text x="32263.32" y="200" text-anchor="middle" dominant-baseline="middle" class="label">sys_81</text><rect x="32625" y="180" width="80" height="45" rx="5" class="node" fill="#ffffff" stroke="#334155" stroke-width="2" /><text x="32665" y="202.5" text-anchor="middle" dominant-baseline="middle" class="label">sys_82</text><rect x="2439.832" y="180" width="70" height="40" rx="5" class="node" fill="#ffffff" stroke="#334155" stroke-width="2" /><text x="2474.832" y="200" text-anchor="middle" dominant-baseline="middle" class="label">sys_6</text><rect x="14329.297" y="180" width="70" height="40" rx="5" class="node" fill="#ffffff" stroke="#334155" stroke-width="2" /><text x="14364.297" y="200" text-anchor="middle" dominant-baseline="middle" class="label">sys_36</text><rect x="33021.68" y="180" width="90" height="50" rx="5" class="node" fill="#ffffff" stroke="#334155" stroke-width="2" /><text x="33066.68" y="205" text-anchor="middle" dominant-baseline="middle" class="label">sys_83</text><rect x="34606.055" y="180" width="80" height="40" rx="5" class="node" fill="#ffffff" stroke="#334155" stroke-width="2" /><text x="34646.055" y="200" text-anchor="middle" dominant-baseline="middle" class="label">sys_87</text><rect x="35001.563" y="180" width="90" height="45" rx="5" class="node" fill="#ffffff" stroke="#334155" stroke-width="2" /><text x="35046.563" y="202.5" text-anchor="middle" dominant-baseline="middle" class="label">sys_88</text><rect x="8366.992" y="180" width="70" height="40" rx="5" class="node" fill="#ffffff" stroke="#334155" stroke-width="2" /><text x="8401.992" y="200" text-anchor="middle" dominant-baseline="middle" class="label">sys_21</text><rect x="11545.361" y="180" width="100" height="50" rx="5" class="node" fill="#ffffff" stroke="#334155" stroke-width="2" /><text x="11595.361" y="205" text-anchor="middle" dominant-baseline="middle" class="label">sys_29</text><rect x="36579.492" y="180" width="80" height="50" rx="5" class="node" fill="#ffffff" stroke="#334155" stroke-width="2" /><text x="36619.492" y="205" text-anchor="middle" dominant-baseline="middle" class="label">sys_92</text><rect x="5591.8164" y="180" width="100" height="50" rx="5" class="node" fill="#ffffff" stroke="#334155" stroke-width="2" /><text x="5641.8164" y="205" text-anchor="middle" dominant-baseline="middle" class="label">sys_14</text><rect x="6383.838" y="180" width="70" height="45" rx="5" class="node" fill="#ffffff" stroke="#334155" stroke-width="2" /><text x="6418.838" y="202.5" text-anchor="middle" dominant-baseline="middle" class="label">sys_16</text><rect x="9558.301" y="180" width="100" height="40" rx="5" class="node" fill="#ffffff" stroke="#334155" stroke-width="2" /><text x="9608.301" y="200" text-anchor="middle" dominant-baseline="middle" class="label">sys_24</text><rect x="33417.97" y="180" width="100" height="40" rx="5" class="node" fill="#ffffff" stroke="#334155" stroke-width="2" /><text x="33467.97" y="200" text-anchor="middle" dominant-baseline="middle" class="label">sys_84</text><rect x="34210.35" y="180" width="70" height="50" rx="5" class="node" fill="#ffffff" stroke="#334155" stroke-width="2" /><text x="34245.35" y="205" text-anchor="middle" dominant-baseline="middle" class="label">sys_86</text><rect x="37364.65" y="180" width="100" height="45" rx="5" class="node" fill="#ffffff" stroke="#334155" stroke-width="2" /><text x="37414.65" y="202.5" text-anchor="middle" dominant-baseline="middle" class="label">sys_94</text><rect x="11942.969" y="180" width="60" height="40" rx="5" class="node" fill="#ffffff" stroke="#334155" stroke-width="2" /><text x="11972.969" y="200" text-anchor="middle" dominant-baseline="middle" class="label">sys_30</text><rect x="15522.9" y="180" width="100" height="40" rx="5" class="node" fill="#ffffff" stroke="#334155" stroke-width="2" /><text x="15572.9" y="200" text-anchor="middle" dominant-baseline="middle" class="label">sys_39</text><rect x="26267.383" y="180" width="70" height="40" rx="5" class="node" fill="#ffffff" stroke="#334155" stroke-width="2" /><text x="26302.383" y="200" text-anchor="middle" dominant-baseline="middle" class="label">sys_66</text><rect x="7176.66" y="180" width="90" height="40" rx="5" class="node" fill="#ffffff" stroke="#334155" stroke-width="2" /><text x="7221.66" y="200" text-anchor="middle" dominant-baseline="middle" class="label">sys_18</text><rect x="37755.273" y="180" width="60" height="50" rx="5" class="node" fill="#ffffff" stroke="#334155" stroke-width="2" /><text x="37785.273" y="205" text-anchor="middle" dominant-baseline="middle" class="label">sys_95</text><rect x="12738.281" y="180" width="80" height="50" rx="5" class="node" fill="#ffffff" stroke="#334155" stroke-width="2" /><text x="12778.281" y="205" text-anchor="middle" dominant-baseline="middle" class="label">sys_32</text><rect x="38144.336" y="180" width="70" height="40" rx="5" class="node" fill="#ffffff" stroke="#334155" stroke-width="2" /><text x="38179.336" y="200" text-anchor="middle" dominant-baseline="middle" class="label">sys_96</text><rect x="30243.066" y="180" width="70" height="45" rx="5" class="node" fill="#ffffff" stroke="#334155" stroke-width="2" /><text x="30278.066" y="202.5" text-anchor="middle" dominant-baseline="middle" class="label">sys_76</text><rect x="22288.477" y="180" width="70" height="50" rx="5" class="node" fill="#ffffff" stroke="#334155" stroke-width="2" /><text x="22323.477" y="205" text-anchor="middle" dominant-baseline="middle" class="label">sys_56</text><rect x="39281.758" y="180" width="100" height="40" rx="5" class="node" fill="#ffffff" stroke="#334155" stroke-width="2" /><text x="39331.758" y="200" text-anchor="middle" dominant-baseline="middle" class="label">sys_99</text><rect x="27858.203" y="180" width="60" height="45" rx="5" class="node" fill="#ffffff" stroke="#334155" stroke-width="2" /><text x="27888.203" y="202.5" text-anchor="middle" dominant-baseline="middle" class="label">sys_70</text><rect x="30640.332" y="180" width="80" height="50" rx="5" class="node" fill="#ffffff" stroke="#334155" stroke-width="2" /><text x="30680.332" y="205" text-anchor="middle" dominant-baseline="middle" class="label">sys_77</text><rect x="18308.496" y="180" width="70" height="45" rx="5" class="node" fill="#ffffff" stroke="#334155" stroke-width="2" /><text x="18343.496" y="202.5" text-anchor="middle" dominant-baseline="middle" class="label">sys_46</text><rect x="36972.656" y="180" width="90" height="40" rx="5" class="node" fill="#ffffff" stroke="#334155" stroke-width="2" /><text x="37017.656" y="200" text-anchor="middle" dominant-baseline="middle" class="label">sys_93</text>
<script type="text/javascript">
<![CDATA[
(function() {
    const svg = document.documentElement;
    let isDragging = false;
    let startX = 0;
    let startY = 0;
    let viewBoxX = 0;
    let viewBoxY = 0;
    let viewBoxWidth = 0;
    let viewBoxHeight = 0;

    function parseViewBox() {
        const vb = svg.getAttribute("viewBox");
        if (vb) {
            const parts = vb.split(" ").map(Number);
            if (parts.length === 4) {
                viewBoxX = parts[0];
                viewBoxY = parts[1];
                viewBoxWidth = parts[2];
                viewBoxHeight = parts[3];
            }
        }
    }

    parseViewBox();

    svg.addEventListener("mousedown", (e) => {
        isDragging = true;
        startX = e.clientX;
        startY = e.clientY;
        svg.style.cursor = "grabbing";
    });

    svg.addEventListener("mousemove", (e) => {
        if (!isDragging) return;
        const dx = e.clientX - startX;
        const dy = e.clientY - startY;

        const clientRect = svg.getBoundingClientRect();
        const scaleX = viewBoxWidth / clientRect.width;
        const scaleY = viewBoxHeight / clientRect.height;

        viewBoxX -= dx * scaleX;
        viewBoxY -= dy * scaleY;
        
        svg.setAttribute("viewBox", `${viewBoxX} ${viewBoxY} ${viewBoxWidth} ${viewBoxHeight}`);

        startX = e.clientX;
        startY = e.clientY;
    });

    const stopDragging = () => {
        isDragging = false;
        svg.style.cursor = "grab";
    };

    svg.addEventListener("mouseup", stopDragging);
    svg.addEventListener("mouseleave", stopDragging);

    svg.addEventListener("wheel", (e) => {
        e.preventDefault();
        parseViewBox();
        const clientRect = svg.getBoundingClientRect();
        const mouseX = e.clientX - clientRect.left;
        const mouseY = e.clientY - clientRect.top;
        
        const svgX = viewBoxX + (mouseX / clientRect.width) * viewBoxWidth;
        const svgY = viewBoxY + (mouseY / clientRect.height) * viewBoxHeight;

        const zoomFactor = 1.0 + (e.deltaY * 0.001);
        
        viewBoxWidth *= zoomFactor;
        viewBoxHeight *= zoomFactor;

        viewBoxX = svgX - (mouseX / clientRect.width) * viewBoxWidth;
        viewBoxY = svgY - (mouseY / clientRect.height) * viewBoxHeight;

        svg.setAttribute("viewBox", `${viewBoxX} ${viewBoxY} ${viewBoxWidth} ${viewBoxHeight}`);
    }, { passive: false });
})();
]]>
</script>
</svg>