<svg xmlns="http://www.w3.org/2000/svg" viewBox="0 0 1000 2000"><style>
        .node { fill: #fff; stroke: #333; stroke-width: 2; }
        .connection { stroke: #999; stroke-width: 2; fill: none; }
        .label { font-family: sans-serif; font-size: 12px; fill: #333; }
        .diagram-title { font-family: sans-serif; font-size: 18px; font-weight: bold; fill: #000; }
    </style><text x="20" y="50" class="diagram-title">Mixed</text><rect x="213.71254" y="180" width="120" height="60" rx="5" class="node" /><text x="273.71252" y="215" text-anchor="middle" class="label">App</text><rect x="186.28746" y="180" width="120" height="60" rx="5" class="node" /><text x="246.28746" y="215" text-anchor="middle" class="label">node</text><text x="20" y="480" class="diagram-title">Packet: Protocol</text><rect x="20" y="510" width="120" height="50" rx="0" class="node" fill="#e3f2fd" /><text x="80" y="530" text-anchor="middle" class="label">header</text><text x="80" y="545" text-anchor="middle" font-size="10px" fill="#666">0..7</text><text x="20" y="610" class="diagram-title">State Machine: FSM</text><circle cx="50" cy="640" r="30" class="node" fill="#fafafa" /><text x="50" y="640" text-anchor="middle" class="label" dy=".3em">IDLE</text><circle cx="200" cy="640" r="30" class="node" fill="#fafafa" /><text x="200" y="640" text-anchor="middle" class="label" dy=".3em">BUSY</text><line x1="80" y1="640" x2="170" y2="640" class="connection" stroke-dasharray="5,5" /><text x="125" y="630" text-anchor="middle" font-size="10px" fill="#d32f2f">start</text><text x="20" y="740" class="diagram-title">XY Chart: Chart</text><line x1="50" y1="970" x2="450" y2="970" stroke="#333" stroke-width="2" /><line x1="50" y1="970" x2="50" y2="770" stroke="#333" stroke-width="2" /><text x="250" y="990" text-anchor="middle" font-size="12px">X</text><text x="50" y="870" text-anchor="middle" font-size="12px" transform="rotate(-90 50 870)" dy="-30">Y</text><text x="70" y="790" font-size="12px" fill="#1976d2">Data Source: D</text><polyline points="50 970 150 920 250 850 350 890" fill="none" stroke="#e91e63" stroke-width="3" /></svg>